<svg width="19" height="19" viewBox="0 0 19 19" fill="none" xmlns="http://www.w3.org/2000/svg">
<g clip-path="url(#clip0_71_515)">
<path d="M9.3 10.85C10.5865 10.85 11.6173 9.81149 11.6173 8.52499L11.625 3.87499C11.625 2.58849 10.5865 1.54999 9.3 1.54999C8.0135 1.54999 6.975 2.58849 6.975 3.87499V8.52499C6.975 9.81149 8.0135 10.85 9.3 10.85ZM13.4075 8.52499C13.4075 10.85 11.439 12.4775 9.3 12.4775C7.161 12.4775 5.1925 10.85 5.1925 8.52499H3.875C3.875 11.1677 5.983 13.3532 8.525 13.733V16.275H10.075V13.733C12.617 13.361 14.725 11.1755 14.725 8.52499H13.4075Z" fill="black"/>
</g>
<defs>
<clipPath id="clip0_71_515">
<rect width="18.6" height="18.6" fill="white"/>
</clipPath>
</defs>
</svg>
