<!-- <svg width="20" height="20" viewBox="0 0 20 20" fill="none" xmlns="http://www.w3.org/2000/svg">
<path d="M10.0001 12.9167C11.8417 12.9167 13.3334 11.4251 13.3334 9.58341V5.00008C13.3334 3.15841 11.8417 1.66675 10.0001 1.66675C8.15841 1.66675 6.66675 3.15841 6.66675 5.00008V9.58341C6.66675 11.4251 8.15841 12.9167 10.0001 12.9167Z" stroke="#4B360C" stroke-width="1.5" stroke-linecap="round" stroke-linejoin="round"/>
<path d="M3.625 8.04168V9.45835C3.625 12.975 6.48333 15.8334 10 15.8334M10 15.8334C13.5167 15.8334 16.375 12.975 16.375 9.45835V8.04168M10 15.8334V18.3334M8.84167 5.35835C9.59167 5.08335 10.4083 5.08335 11.1583 5.35835M9.33333 7.12502C9.775 7.00835 10.2333 7.00835 10.675 7.12502" stroke="#4B360C" stroke-width="1.5" stroke-linecap="round" stroke-linejoin="round"/>
</svg> -->
<svg width="24" height="24" viewBox="0 0 24 24" fill="none" xmlns="http://www.w3.org/2000/svg">
<path d="M16 6.3V6C16 3.79 14.21 2 12 2C9.79 2 8 3.79 8 6V11M9.04 14.19C9.77 15 10.83 15.5 12 15.5C14.21 15.5 16 13.71 16 11.5V11" stroke="#B5B1AD" stroke-width="1.5" stroke-linecap="round" stroke-linejoin="round"/>
<path d="M6.78018 16.95C7.87129 17.9648 9.23483 18.6391 10.7036 18.8903C12.1723 19.1415 13.6825 18.9586 15.0488 18.3641C16.4152 17.7695 17.5783 16.7892 18.3957 15.5433C19.213 14.2974 19.649 12.84 19.6502 11.35V9.64997M4.35018 9.64997V11.35C4.35018 12.41 4.56018 13.41 4.95018 14.33M20.0702 2.83997L3.93018 18.99M11.0002 2.99997V5.99997M12.0002 19V22" stroke="#B5B1AD" stroke-width="1.5" stroke-linecap="round" stroke-linejoin="round"/>
</svg>
